PathFileType	4	(X/Y/Z)	Walk4.trc
DataRate	CameraRate	NumFrames	NumMarkers	Units	OrigDataRate	OrigDataStartFrame	OrigNumFrames
200.000000	200.000000	8	59	mm	200.000000	282	559
Frame#	Times		LFHD		C7		CLAV		STRN		RBack		RASI		RACR1		RUA1		RElbow		RFA1		RWRU		RCAR		LACR1		LUA1		LFA1		LWRR		LCAR		RTH1		RTH3		RTH2		RLFC		LTH1		LTH3		LTH2		LTH4		LLFC		LTB1		LTB3		LTB4		LMT1		LToe		T10		RTH4		LMMAL		LTB2		LMT5		RFHD		RPSI		RWRR		RToe		LLMAL		LElbow		LPSI		RBHD		RTB1		LBHD		LWRU		LElbowM		RTB2		RTB4		RTB3		RMT1		LASI		RMMAL		RLMAL		RMT5		RCAL		LCAL		RElbowM
			X1	Y1	Z1	X2	Y2	Z2	X3	Y3	Z3	X4	Y4	Z4	X5	Y5	Z5	X6	Y6	Z6	X7	Y7	Z7	X8	Y8	Z8	X9	Y9	Z9	X10	Y10	Z10	X11	Y11	Z11	X12	Y12	Z12	X13	Y13	Z13	X14	Y14	Z14	X15	Y15	Z15	X16	Y16	Z16	X17	Y17	Z17	X18	Y18	Z18	X19	Y19	Z19	X20	Y20	Z20	X21	Y21	Z21	X22	Y22	Z22	X23	Y23	Z23	X24	Y24	Z24	X25	Y25	Z25	X26	Y26	Z26	X27	Y27	Z27	X28	Y28	Z28	X29	Y29	Z29	X30	Y30	Z30	X31	Y31	Z31	X32	Y32	Z32	X33	Y33	Z33	X34	Y34	Z34	X35	Y35	Z35	X36	Y36	Z36	X37	Y37	Z37	X38	Y38	Z38	X39	Y39	Z39	X40	Y40	Z40	X41	Y41	Z41	X42	Y42	Z42	X43	Y43	Z43	X44	Y44	Z44	X45	Y45	Z45	X46	Y46	Z46	X47	Y47	Z47	X48	Y48	Z48	X49	Y49	Z49	X50	Y50	Z50	X51	Y51	Z51	X52	Y52	Z52	X53	Y53	Z53	X54	Y54	Z54	X55	Y55	Z55	X56	Y56	Z56	X57	Y57	Z57	X58	Y58	Z58	X59	Y59	Z59

282	1.41	-378.64	1586.2	-74.44	-537.36	1417	-34.378	-411.39	1341.2	-41.091	-333.36	1116.4	-31.666	-575.5	1314.9	68.512	-388.29	941.68	112.81	-455.33	1357.4	132.8	-470.71	1147.6	201.2	-489.39	1040.6	226.6	-408.76	907.34	221.98	-419.33	795.35	233.88	-367.16	763.06	224.21	-477.82	1347.2	-208.82	-518.42	1139.9	-245.87	-519.23	896.52	-261.63	-515.52	778.05	-221.05	-528.24	735.1	-262.8	-477.14	734.79	154.85	-464.69	547.9	125.46	-405.74	653.09	112.17	-474.84	454.62	111.41	-462.83	738.79	-188.34	-414.77	562.93	-147.14	-369.57	668.52	-141.35	-439.39	646.75	-167.49	-398.78	456.05	-132.23	-366.56	360.57	-50.068	-388.28	174.51	-43.141	-376.23	265.49	-50.345	-285.48	38.482	-47.466	-241.2	30.439	-76.634	-570.46	1134	-22.133	-471.5	641.12	137.95	-417.78	75.364	-5.0236	-401.07	267.1	-117.92	-326.84	22.575	-124.2	-371.51	1590	-1.5958	-603.7	976.05	44.335	-375.3	810.35	176.42	-732.45	46.444	76.41	-434.86	61.249	-84.869	-552.67	1024	-249.91	-602.24	975.73	-71.359	-540.1	1544.8	37.373	-530.85	344.82	47.408	-547.18	1549.2	-89.901	-568.91	784.14	-269.05	-570.75	1016.2	-181.17	-617.32	315.35	117.84	-610.76	297.59	48.593	-689.49	249.01	49.898	-747.68	74.77	45.923	-384.8	936.72	-147.79	-772.72	212.84	23.159	-802.78	220.76	98.486	-795.69	88.85	112.13	-848.5	240.46	48.554	-482.96	28.929	-29.965	-507.57	1018.8	144.87
283	1.415	-372.6	1586.9	-74.631	-531.64	1417.9	-34.8	-405.77	1341.9	-41.42	-327.88	1117	-31.911	-570.08	1315.7	67.832	-383.13	942.6	112.96	-449.98	1358.1	132.54	-466.2	1148.3	200.9	-485.19	1041.3	226.21	-405.41	907.59	222	-416.71	795.7	234.13	-364.84	762.96	224.45	-471.92	1348.1	-209.17	-511.49	1140.5	-246.54	-510.99	897.15	-262.07	-507	778.76	-221.25	-519.11	735.66	-263.01	-470.03	735.94	154.71	-455.47	549.16	125.51	-397.51	654.92	112.57	-463.99	456.19	111.43	-458.31	739.17	-188.55	-411.44	562.99	-147.35	-365.62	668.29	-141.37	-435.5	646.97	-167.68	-396.32	455.88	-132.35	-364.83	360.25	-50.117	-387.61	174.31	-43.139	-375.06	265.23	-50.348	-285.49	38.482	-47.502	-241.08	30.368	-76.765	-564.89	1134.8	-22.819	-463.35	642.37	137.99	-417.72	75.345	-5.0144	-399.69	266.91	-118	-326.85	22.547	-124.25	-365.49	1590.6	-1.7763	-598.06	976.87	43.954	-372.59	810.27	176.59	-719.38	48.347	77.745	-434.8	61.268	-84.866	-545.13	1024.5	-250.75	-596.8	976.51	-71.683	-534.15	1545.6	37.107	-519.65	346.4	47.306	-541.2	1550.1	-90.153	-559.96	784.51	-269.82	-563.77	1016.6	-182.18	-606.07	316.91	117.66	-599.47	299.15	48.409	-678.2	250.56	49.682	-734.76	76.612	46.999	-379.63	937.26	-148.53	-761.28	214.23	22.867	-791.48	222.27	98.18	-783.05	90.947	112.93	-837.38	241.35	48.046	-482.95	28.962	-29.929	-503.51	1019.4	144.42
284	1.42	-366.58	1587.6	-74.805	-525.94	1418.7	-35.202	-400.17	1342.6	-41.737	-322.39	1117.7	-32.153	-564.68	1316.4	67.17	-378	943.45	113.14	-444.66	1358.7	132.29	-461.71	1148.9	200.59	-481.01	1042	225.83	-402.1	907.84	222.02	-414.11	796.06	234.38	-362.54	762.89	224.7	-466.05	1348.9	-209.52	-504.58	1141.2	-247.18	-502.69	897.78	-262.5	-498.42	779.47	-221.44	-509.89	736.23	-263.22	-462.99	737.11	154.6	-446.31	550.48	125.55	-389.34	656.8	113	-453.2	457.82	111.43	-453.79	739.53	-188.74	-408.12	563.05	-147.54	-361.69	668.04	-141.38	-431.61	647.18	-167.85	-393.89	455.72	-132.45	-363.14	359.95	-50.159	-386.95	174.12	-43.135	-373.91	264.97	-50.349	-285.51	38.483	-47.546	-240.98	30.299	-76.886	-559.34	1135.6	-23.494	-455.27	643.65	138.04	-417.65	75.329	-5.0071	-398.34	266.73	-118.08	-326.86	22.515	-124.31	-359.47	1591.2	-1.938	-592.41	977.69	43.612	-369.9	810.19	176.77	-705.9	50.085	79.106	-434.74	61.288	-84.864	-537.58	1024.9	-251.6	-591.37	977.28	-71.97	-528.22	1546.4	36.863	-508.42	347.98	47.174	-535.24	1551.1	-90.382	-550.93	784.88	-270.59	-556.79	1017	-183.21	-594.74	318.34	117.44	-588.1	300.6	48.185	-666.75	251.91	49.416	-721.48	78.217	48.071	-374.48	937.79	-149.29	-749.64	215.3	22.514	-779.98	223.46	97.814	-770.05	92.785	113.73	-826.11	241.83	47.458	-482.94	28.998	-29.889	-499.51	1019.9	143.99
285	1.425	-360.58	1588.2	-74.963	-520.26	1419.6	-35.585	-394.59	1343.3	-42.041	-316.91	1118.3	-32.393	-559.29	1317.1	66.529	-372.9	944.24	113.34	-439.34	1359.3	132.06	-457.22	1149.5	200.27	-476.85	1042.7	225.45	-398.8	908.09	222.03	-411.54	796.41	234.62	-360.25	762.83	224.96	-460.23	1349.7	-209.84	-497.69	1141.8	-247.81	-494.35	898.43	-262.9	-489.76	780.2	-221.63	-500.59	736.83	-263.44	-456.01	738.28	154.52	-437.21	551.84	125.58	-381.24	658.72	113.45	-442.48	459.49	111.41	-449.27	739.88	-188.91	-404.83	563.11	-147.71	-357.77	667.76	-141.38	-427.75	647.39	-168	-391.5	455.55	-132.53	-361.49	359.64	-50.189	-386.3	173.93	-43.13	-372.76	264.71	-50.348	-285.52	38.486	-47.594	-240.88	30.234	-76.997	-553.81	1136.5	-24.156	-447.26	644.96	138.1	-417.58	75.317	-4.9986	-397.03	266.56	-118.14	-326.87	22.479	-124.37	-353.46	1591.7	-2.0833	-586.77	978.51	43.309	-367.23	810.13	176.95	-692.07	51.639	80.483	-434.69	61.31	-84.859	-530.01	1025.4	-252.44	-585.94	978.04	-72.222	-522.3	1547.2	36.641	-497.16	349.54	47.014	-529.29	1552	-90.59	-541.82	785.25	-271.34	-549.81	1017.3	-184.25	-583.34	319.64	117.18	-576.64	301.94	47.929	-655.16	253.06	49.111	-707.88	79.577	49.135	-369.33	938.31	-150.06	-737.81	216.06	22.114	-768.31	224.32	97.4	-756.74	94.355	114.53	-814.67	241.91	46.809	-482.93	29.039	-29.847	-495.57	1020.5	143.58
286	1.43	-354.58	1588.9	-75.107	-514.61	1420.4	-35.949	-389.03	1344	-42.331	-311.43	1118.9	-32.631	-553.92	1317.9	65.911	-367.81	944.98	113.55	-434.04	1359.9	131.83	-452.73	1150.1	199.93	-472.71	1043.4	225.07	-395.53	908.33	222.03	-409	796.76	234.86	-357.97	762.79	225.23	-454.45	1350.6	-210.15	-490.81	1142.4	-248.41	-485.95	899.08	-263.29	-481.05	780.93	-221.81	-491.2	737.44	-263.66	-449.09	739.47	154.45	-428.16	553.25	125.6	-373.21	660.68	113.91	-431.82	461.2	111.38	-444.77	740.2	-189.05	-401.57	563.14	-147.86	-353.86	667.47	-141.38	-423.91	647.58	-168.13	-389.13	455.38	-132.6	-359.85	359.33	-50.205	-385.65	173.74	-43.118	-371.62	264.45	-50.342	-285.54	38.49	-47.645	-240.79	30.171	-77.096	-548.29	1137.2	-24.804	-439.31	646.3	138.15	-417.5	75.306	-4.9864	-395.74	266.38	-118.2	-326.89	22.44	-124.44	-347.47	1592.3	-2.2144	-581.12	979.33	43.041	-364.57	810.07	177.14	-677.91	53	81.865	-434.63	61.337	-84.85	-522.43	1025.8	-253.28	-580.53	978.77	-72.44	-516.39	1548	36.44	-485.87	351.08	46.834	-523.36	1553	-90.776	-532.64	785.63	-272.08	-542.84	1017.7	-185.31	-571.87	320.8	116.91	-565.1	303.17	47.651	-643.42	253.99	48.775	-693.99	80.69	50.187	-364.19	938.82	-150.84	-725.79	216.5	21.677	-756.45	224.86	96.951	-743.15	95.652	115.33	-803.07	241.61	46.116	-482.92	29.085	-29.799	-491.66	1021	143.2
287	1.435	-348.61	1589.5	-75.24	-508.97	1421.2	-36.294	-383.49	1344.7	-42.606	-305.96	1119.6	-32.867	-548.56	1318.6	65.319	-362.72	945.68	113.77	-428.75	1360.5	131.62	-448.24	1150.7	199.58	-468.59	1044.1	224.7	-392.28	908.57	222.02	-406.48	797.11	235.09	-355.7	762.76	225.52	-448.71	1351.4	-210.44	-483.96	1143.1	-248.99	-477.51	899.76	-263.65	-472.27	781.69	-221.99	-481.73	738.09	-263.89	-442.23	740.66	154.41	-419.15	554.69	125.61	-365.25	662.67	114.38	-421.23	462.95	111.33	-440.28	740.5	-189.18	-398.33	563.16	-147.98	-349.96	667.14	-141.39	-420.09	647.75	-168.22	-386.79	455.21	-132.64	-358.23	359.02	-50.205	-385.01	173.55	-43.099	-370.47	264.19	-50.327	-285.55	38.494	-47.698	-240.71	30.113	-77.186	-542.78	1138	-25.436	-431.42	647.66	138.2	-417.41	75.296	-4.9681	-394.48	266.22	-118.23	-326.9	22.398	-124.51	-341.49	1592.8	-2.3334	-575.47	980.14	42.806	-361.92	810.02	177.34	-663.46	54.165	83.238	-434.57	61.367	-84.834	-514.84	1026.3	-254.13	-575.11	979.48	-72.625	-510.49	1548.8	36.258	-474.54	352.6	46.637	-517.45	1553.9	-90.943	-523.39	786.02	-272.81	-535.88	1018.1	-186.38	-560.34	321.84	116.61	-553.48	304.28	47.36	-631.54	254.73	48.418	-679.82	81.561	51.218	-359.06	939.33	-151.62	-713.58	216.64	21.217	-744.42	225.06	96.479	-729.3	96.676	116.1	-791.32	240.93	45.396	-482.91	29.138	-29.746	-487.77	1021.6	142.84
288	1.44	-342.64	1590.1	-75.363	-503.36	1422	-36.621	-377.97	1345.3	-42.865	-300.48	1120.2	-33.102	-543.21	1319.3	64.753	-357.62	946.35	113.98	-423.47	1361	131.41	-443.73	1151.2	199.22	-464.48	1044.7	224.33	-389.05	908.81	222.02	-403.97	797.47	235.32	-353.44	762.75	225.82	-443.01	1352.2	-210.72	-477.13	1143.7	-249.55	-469.02	900.44	-263.99	-463.44	782.46	-222.16	-472.18	738.77	-264.11	-435.43	741.85	154.38	-410.19	556.15	125.61	-357.33	664.69	114.86	-410.7	464.72	111.27	-435.81	740.77	-189.28	-395.12	563.16	-148.07	-346.06	666.77	-141.41	-416.29	647.89	-168.28	-384.46	455.03	-132.65	-356.62	358.71	-50.186	-384.36	173.36	-43.07	-369.32	263.93	-50.3	-285.56	38.5	-47.75	-240.63	30.058	-77.266	-537.29	1138.8	-26.05	-423.57	649.03	138.25	-417.31	75.287	-4.9418	-393.24	266.05	-118.24	-326.92	22.355	-124.58	-335.52	1593.3	-2.4422	-569.83	980.94	42.601	-359.28	809.97	177.54	-648.73	55.134	84.587	-434.51	61.403	-84.81	-507.24	1026.8	-254.97	-569.69	980.16	-72.78	-504.61	1549.5	36.096	-463.17	354.09	46.43	-511.56	1554.8	-91.092	-514.08	786.41	-273.52	-528.92	1018.4	-187.46	-548.76	322.74	116.31	-541.79	305.26	47.063	-619.53	255.25	48.049	-665.39	82.198	52.221	-353.94	939.85	-152.39	-701.21	216.47	20.743	-732.22	224.95	95.995	-715.19	97.425	116.85	-779.41	239.88	44.667	-482.89	29.199	-29.685	-483.88	1022.1	142.5
289	1.445	-336.69	1590.7	-75.476	-497.77	1422.7	-36.927	-372.46	1345.9	-43.107	-295.02	1120.9	-33.335	-537.87	1319.9	64.216	-352.49	947.01	114.18	-418.2	1361.6	131.22	-439.22	1151.8	198.84	-460.4	1045.4	223.95	-385.83	909.04	222	-401.49	797.82	235.55	-351.18	762.75	226.14	-437.34	1353	-210.97	-470.31	1144.3	-250.1	-460.49	901.15	-264.31	-454.55	783.25	-222.32	-462.56	739.48	-264.34	-428.69	743.04	154.36	-401.26	557.65	125.6	-349.47	666.74	115.34	-400.26	466.51	111.2	-431.35	741	-189.35	-391.94	563.13	-148.12	-342.17	666.38	-141.44	-412.52	648.02	-168.31	-382.15	454.85	-132.63	-355	358.4	-50.145	-383.72	173.16	-43.029	-368.17	263.67	-50.258	-285.57	38.506	-47.801	-240.55	30.008	-77.337	-531.82	1139.5	-26.648	-415.76	650.41	138.29	-417.2	75.279	-4.9059	-392.02	265.89	-118.23	-326.94	22.311	-124.65	-329.56	1593.8	-2.5425	-564.2	981.72	42.42	-356.64	809.93	177.76	-633.74	55.911	85.897	-434.45	61.445	-84.777	-499.64	1027.3	-255.82	-564.27	980.81	-72.907	-498.74	1550.3	35.951	-451.76	355.55	46.218	-505.69	1555.7	-91.223	-504.7	786.82	-274.22	-521.99	1018.8	-188.56	-537.13	323.52	115.99	-530.04	306.13	46.769	-607.39	255.57	47.675	-650.72	82.614	53.189	-348.82	940.37	-153.16	-688.68	216.02	20.266	-719.86	224.52	95.508	-700.84	97.901	117.58	-767.34	238.46	43.945	-482.88	29.268	-29.618	-479.99	1022.7	142.17
